<svg width="393" height="852" viewBox="0 0 393 852" fill="none" xmlns="http://www.w3.org/2000/svg">
<g clip-path="url(#clip0_164_8653)">
<rect width="393" height="852" fill="#332F30"/>
<g opacity="0.15">
<path d="M386.225 0L386.052 0.712558L370.771 62.2358L355.31 0H354.054L338.599 62.2358L323.318 0.712558L323.138 0H321.887L321.708 0.712558L306.427 62.2358L290.972 0H289.715L274.255 62.2358L258.974 0.712558L258.8 0H257.543L257.37 0.712558L242.089 62.2358L226.628 0H225.372L209.917 62.2358L194.636 0.712558L194.456 0H193.205L193.026 0.712558L177.745 62.2358L162.284 0H161.033L145.573 62.2358L130.292 0.712558L130.118 0H128.861L128.682 0.712558L113.407 62.2358L97.9461 0H96.6896L81.2347 62.2358L65.9536 0.712558L65.7741 0H64.5176L64.3439 0.712558L49.0628 62.2358L33.608 0H32.3515L16.8909 62.2358L1.43604 0H0.00579049V66.3837H1.60976V7.38627L16.2655 66.3837H17.522L32.1719 7.38627V66.3837H33.7817V7.38627L48.4374 66.3837H49.6882L64.3439 7.38627V66.3837H65.9536V7.38627L80.6036 66.3837H81.8601L96.5158 7.38627V66.3837H98.1256V7.38627L112.776 66.3837H114.032L128.682 7.38627V66.3837H130.292V7.38627L144.947 66.3837H146.204L160.854 7.38627V66.3837H162.464V7.38627L177.119 66.3837H178.376L193.026 7.38627V66.3837H194.636V7.38627L209.286 66.3837H210.542L225.198 7.38627V66.3837H226.808V7.38627L241.458 66.3837H242.714L257.37 7.38627V66.3837H258.974V7.38627L273.629 66.3837H274.886L289.536 7.38627V66.3837H291.146V7.38627L305.801 66.3837H307.052L321.708 7.38627V66.3837H323.318V7.38627L337.968 66.3837H339.224L353.88 7.38627V66.3837H355.49V7.38627L370.14 66.3837H371.396L386.052 7.38627V66.3837H387.656V7.38627L402.311 66.3837H403.568L405.983 56.6686L406 49.908L402.937 62.2358L387.656 0.712558L387.482 0H386.225ZM0 66.3837V68H405.942L405.948 66.3837H0Z" fill="#575756"/>
<path d="M386.225 68L386.052 68.7126L370.771 130.236L355.31 68H354.054L338.599 130.236L323.318 68.7126L323.138 68H321.887L321.708 68.7126L306.427 130.236L290.972 68H289.715L274.255 130.236L258.974 68.7126L258.8 68H257.543L257.37 68.7126L242.089 130.236L226.628 68H225.372L209.917 130.236L194.636 68.7126L194.456 68H193.205L193.026 68.7126L177.745 130.236L162.284 68H161.033L145.573 130.236L130.292 68.7126L130.118 68H128.861L128.682 68.7126L113.407 130.236L97.9461 68H96.6896L81.2347 130.236L65.9536 68.7126L65.7741 68H64.5176L64.3439 68.7126L49.0628 130.236L33.608 68H32.3515L16.8909 130.236L1.43604 68H0.00579049V134.384H1.60976V75.3863L16.2655 134.384H17.522L32.1719 75.3863V134.384H33.7817V75.3863L48.4374 134.384H49.6882L64.3439 75.3863V134.384H65.9536V75.3863L80.6036 134.384H81.8601L96.5158 75.3863V134.384H98.1256V75.3863L112.776 134.384H114.032L128.682 75.3863V134.384H130.292V75.3863L144.947 134.384H146.204L160.854 75.3863V134.384H162.464V75.3863L177.119 134.384H178.376L193.026 75.3863V134.384H194.636V75.3863L209.286 134.384H210.542L225.198 75.3863V134.384H226.808V75.3863L241.458 134.384H242.714L257.37 75.3863V134.384H258.974V75.3863L273.629 134.384H274.886L289.536 75.3863V134.384H291.146V75.3863L305.801 134.384H307.052L321.708 75.3863V134.384H323.318V75.3863L337.968 134.384H339.224L353.88 75.3863V134.384H355.49V75.3863L370.14 134.384H371.396L386.052 75.3863V134.384H387.656V75.3863L402.311 134.384H403.568L405.983 124.669L406 117.908L402.937 130.236L387.656 68.7126L387.482 68H386.225ZM0 134.384V136H405.942L405.948 134.384H0Z" fill="#575756"/>
<path d="M386.225 136L386.052 136.713L370.771 198.236L355.31 136H354.054L338.599 198.236L323.318 136.713L323.138 136H321.887L321.708 136.713L306.427 198.236L290.972 136H289.715L274.255 198.236L258.974 136.713L258.8 136H257.543L257.37 136.713L242.089 198.236L226.628 136H225.372L209.917 198.236L194.636 136.713L194.456 136H193.205L193.026 136.713L177.745 198.236L162.284 136H161.033L145.573 198.236L130.292 136.713L130.118 136H128.861L128.682 136.713L113.407 198.236L97.9461 136H96.6896L81.2347 198.236L65.9536 136.713L65.7741 136H64.5176L64.3439 136.713L49.0628 198.236L33.608 136H32.3515L16.8909 198.236L1.43604 136H0.00579049V202.384H1.60976V143.386L16.2655 202.384H17.522L32.1719 143.386V202.384H33.7817V143.386L48.4374 202.384H49.6882L64.3439 143.386V202.384H65.9536V143.386L80.6036 202.384H81.8601L96.5158 143.386V202.384H98.1256V143.386L112.776 202.384H114.032L128.682 143.386V202.384H130.292V143.386L144.947 202.384H146.204L160.854 143.386V202.384H162.464V143.386L177.119 202.384H178.376L193.026 143.386V202.384H194.636V143.386L209.286 202.384H210.542L225.198 143.386V202.384H226.808V143.386L241.458 202.384H242.714L257.37 143.386V202.384H258.974V143.386L273.629 202.384H274.886L289.536 143.386V202.384H291.146V143.386L305.801 202.384H307.052L321.708 143.386V202.384H323.318V143.386L337.968 202.384H339.224L353.88 143.386V202.384H355.49V143.386L370.14 202.384H371.396L386.052 143.386V202.384H387.656V143.386L402.311 202.384H403.568L405.983 192.669L406 185.908L402.937 198.236L387.656 136.713L387.482 136H386.225ZM0 202.384V204H405.942L405.948 202.384H0Z" fill="#575756"/>
<path d="M386.225 204L386.052 204.713L370.771 266.236L355.31 204H354.054L338.599 266.236L323.318 204.713L323.138 204H321.887L321.708 204.713L306.427 266.236L290.972 204H289.715L274.255 266.236L258.974 204.713L258.8 204H257.543L257.37 204.713L242.089 266.236L226.628 204H225.372L209.917 266.236L194.636 204.713L194.456 204H193.205L193.026 204.713L177.745 266.236L162.284 204H161.033L145.573 266.236L130.292 204.713L130.118 204H128.861L128.682 204.713L113.407 266.236L97.9461 204H96.6896L81.2347 266.236L65.9536 204.713L65.7741 204H64.5176L64.3439 204.713L49.0628 266.236L33.608 204H32.3515L16.8909 266.236L1.43604 204H0.00579049V270.384H1.60976V211.386L16.2655 270.384H17.522L32.1719 211.386V270.384H33.7817V211.386L48.4374 270.384H49.6882L64.3439 211.386V270.384H65.9536V211.386L80.6036 270.384H81.8601L96.5158 211.386V270.384H98.1256V211.386L112.776 270.384H114.032L128.682 211.386V270.384H130.292V211.386L144.947 270.384H146.204L160.854 211.386V270.384H162.464V211.386L177.119 270.384H178.376L193.026 211.386V270.384H194.636V211.386L209.286 270.384H210.542L225.198 211.386V270.384H226.808V211.386L241.458 270.384H242.714L257.37 211.386V270.384H258.974V211.386L273.629 270.384H274.886L289.536 211.386V270.384H291.146V211.386L305.801 270.384H307.052L321.708 211.386V270.384H323.318V211.386L337.968 270.384H339.224L353.88 211.386V270.384H355.49V211.386L370.14 270.384H371.396L386.052 211.386V270.384H387.656V211.386L402.311 270.384H403.568L405.983 260.669L406 253.908L402.937 266.236L387.656 204.713L387.482 204H386.225ZM0 270.384V272H405.942L405.948 270.384H0Z" fill="#575756"/>
<path d="M386.225 272L386.052 272.713L370.771 334.236L355.31 272H354.054L338.599 334.236L323.318 272.713L323.138 272H321.887L321.708 272.713L306.427 334.236L290.972 272H289.715L274.255 334.236L258.974 272.713L258.8 272H257.543L257.37 272.713L242.089 334.236L226.628 272H225.372L209.917 334.236L194.636 272.713L194.456 272H193.205L193.026 272.713L177.745 334.236L162.284 272H161.033L145.573 334.236L130.292 272.713L130.118 272H128.861L128.682 272.713L113.407 334.236L97.9461 272H96.6896L81.2347 334.236L65.9536 272.713L65.7741 272H64.5176L64.3439 272.713L49.0628 334.236L33.608 272H32.3515L16.8909 334.236L1.43604 272H0.00579049V338.384H1.60976V279.386L16.2655 338.384H17.522L32.1719 279.386V338.384H33.7817V279.386L48.4374 338.384H49.6882L64.3439 279.386V338.384H65.9536V279.386L80.6036 338.384H81.8601L96.5158 279.386V338.384H98.1256V279.386L112.776 338.384H114.032L128.682 279.386V338.384H130.292V279.386L144.947 338.384H146.204L160.854 279.386V338.384H162.464V279.386L177.119 338.384H178.376L193.026 279.386V338.384H194.636V279.386L209.286 338.384H210.542L225.198 279.386V338.384H226.808V279.386L241.458 338.384H242.714L257.37 279.386V338.384H258.974V279.386L273.629 338.384H274.886L289.536 279.386V338.384H291.146V279.386L305.801 338.384H307.052L321.708 279.386V338.384H323.318V279.386L337.968 338.384H339.224L353.88 279.386V338.384H355.49V279.386L370.14 338.384H371.396L386.052 279.386V338.384H387.656V279.386L402.311 338.384H403.568L405.983 328.669L406 321.908L402.937 334.236L387.656 272.713L387.482 272H386.225ZM0 338.384V340H405.942L405.948 338.384H0Z" fill="#575756"/>
<path d="M386.225 340L386.052 340.713L370.771 402.236L355.31 340H354.054L338.599 402.236L323.318 340.713L323.138 340H321.887L321.708 340.713L306.427 402.236L290.972 340H289.715L274.255 402.236L258.974 340.713L258.8 340H257.543L257.37 340.713L242.089 402.236L226.628 340H225.372L209.917 402.236L194.636 340.713L194.456 340H193.205L193.026 340.713L177.745 402.236L162.284 340H161.033L145.573 402.236L130.292 340.713L130.118 340H128.861L128.682 340.713L113.407 402.236L97.9461 340H96.6896L81.2347 402.236L65.9536 340.713L65.7741 340H64.5176L64.3439 340.713L49.0628 402.236L33.608 340H32.3515L16.8909 402.236L1.43604 340H0.00579049V406.384H1.60976V347.386L16.2655 406.384H17.522L32.1719 347.386V406.384H33.7817V347.386L48.4374 406.384H49.6882L64.3439 347.386V406.384H65.9536V347.386L80.6036 406.384H81.8601L96.5158 347.386V406.384H98.1256V347.386L112.776 406.384H114.032L128.682 347.386V406.384H130.292V347.386L144.947 406.384H146.204L160.854 347.386V406.384H162.464V347.386L177.119 406.384H178.376L193.026 347.386V406.384H194.636V347.386L209.286 406.384H210.542L225.198 347.386V406.384H226.808V347.386L241.458 406.384H242.714L257.37 347.386V406.384H258.974V347.386L273.629 406.384H274.886L289.536 347.386V406.384H291.146V347.386L305.801 406.384H307.052L321.708 347.386V406.384H323.318V347.386L337.968 406.384H339.224L353.88 347.386V406.384H355.49V347.386L370.14 406.384H371.396L386.052 347.386V406.384H387.656V347.386L402.311 406.384H403.568L405.983 396.669L406 389.908L402.937 402.236L387.656 340.713L387.482 340H386.225ZM0 406.384V408H405.942L405.948 406.384H0Z" fill="#575756"/>
<path d="M386.225 408L386.052 408.713L370.771 470.236L355.31 408H354.054L338.599 470.236L323.318 408.713L323.138 408H321.887L321.708 408.713L306.427 470.236L290.972 408H289.715L274.255 470.236L258.974 408.713L258.8 408H257.543L257.37 408.713L242.089 470.236L226.628 408H225.372L209.917 470.236L194.636 408.713L194.456 408H193.205L193.026 408.713L177.745 470.236L162.284 408H161.033L145.573 470.236L130.292 408.713L130.118 408H128.861L128.682 408.713L113.407 470.236L97.9461 408H96.6896L81.2347 470.236L65.9536 408.713L65.7741 408H64.5176L64.3439 408.713L49.0628 470.236L33.608 408H32.3515L16.8909 470.236L1.43604 408H0.00579049V474.384H1.60976V415.386L16.2655 474.384H17.522L32.1719 415.386V474.384H33.7817V415.386L48.4374 474.384H49.6882L64.3439 415.386V474.384H65.9536V415.386L80.6036 474.384H81.8601L96.5158 415.386V474.384H98.1256V415.386L112.776 474.384H114.032L128.682 415.386V474.384H130.292V415.386L144.947 474.384H146.204L160.854 415.386V474.384H162.464V415.386L177.119 474.384H178.376L193.026 415.386V474.384H194.636V415.386L209.286 474.384H210.542L225.198 415.386V474.384H226.808V415.386L241.458 474.384H242.714L257.37 415.386V474.384H258.974V415.386L273.629 474.384H274.886L289.536 415.386V474.384H291.146V415.386L305.801 474.384H307.052L321.708 415.386V474.384H323.318V415.386L337.968 474.384H339.224L353.88 415.386V474.384H355.49V415.386L370.14 474.384H371.396L386.052 415.386V474.384H387.656V415.386L402.311 474.384H403.568L405.983 464.669L406 457.908L402.937 470.236L387.656 408.713L387.482 408H386.225ZM0 474.384V476H405.942L405.948 474.384H0Z" fill="#575756"/>
<path d="M386.225 476L386.052 476.713L370.771 538.236L355.31 476H354.054L338.599 538.236L323.318 476.713L323.138 476H321.887L321.708 476.713L306.427 538.236L290.972 476H289.715L274.255 538.236L258.974 476.713L258.8 476H257.543L257.37 476.713L242.089 538.236L226.628 476H225.372L209.917 538.236L194.636 476.713L194.456 476H193.205L193.026 476.713L177.745 538.236L162.284 476H161.033L145.573 538.236L130.292 476.713L130.118 476H128.861L128.682 476.713L113.407 538.236L97.9461 476H96.6896L81.2347 538.236L65.9536 476.713L65.7741 476H64.5176L64.3439 476.713L49.0628 538.236L33.608 476H32.3515L16.8909 538.236L1.43604 476H0.00579049V542.384H1.60976V483.386L16.2655 542.384H17.522L32.1719 483.386V542.384H33.7817V483.386L48.4374 542.384H49.6882L64.3439 483.386V542.384H65.9536V483.386L80.6036 542.384H81.8601L96.5158 483.386V542.384H98.1256V483.386L112.776 542.384H114.032L128.682 483.386V542.384H130.292V483.386L144.947 542.384H146.204L160.854 483.386V542.384H162.464V483.386L177.119 542.384H178.376L193.026 483.386V542.384H194.636V483.386L209.286 542.384H210.542L225.198 483.386V542.384H226.808V483.386L241.458 542.384H242.714L257.37 483.386V542.384H258.974V483.386L273.629 542.384H274.886L289.536 483.386V542.384H291.146V483.386L305.801 542.384H307.052L321.708 483.386V542.384H323.318V483.386L337.968 542.384H339.224L353.88 483.386V542.384H355.49V483.386L370.14 542.384H371.396L386.052 483.386V542.384H387.656V483.386L402.311 542.384H403.568L405.983 532.669L406 525.908L402.937 538.236L387.656 476.713L387.482 476H386.225ZM0 542.384V544H405.942L405.948 542.384H0Z" fill="#575756"/>
<path d="M386.225 544L386.052 544.713L370.771 606.236L355.31 544H354.054L338.599 606.236L323.318 544.713L323.138 544H321.887L321.708 544.713L306.427 606.236L290.972 544H289.715L274.255 606.236L258.974 544.713L258.8 544H257.543L257.37 544.713L242.089 606.236L226.628 544H225.372L209.917 606.236L194.636 544.713L194.456 544H193.205L193.026 544.713L177.745 606.236L162.284 544H161.033L145.573 606.236L130.292 544.713L130.118 544H128.861L128.682 544.713L113.407 606.236L97.9461 544H96.6896L81.2347 606.236L65.9536 544.713L65.7741 544H64.5176L64.3439 544.713L49.0628 606.236L33.608 544H32.3515L16.8909 606.236L1.43604 544H0.00579049V610.384H1.60976V551.386L16.2655 610.384H17.522L32.1719 551.386V610.384H33.7817V551.386L48.4374 610.384H49.6882L64.3439 551.386V610.384H65.9536V551.386L80.6036 610.384H81.8601L96.5158 551.386V610.384H98.1256V551.386L112.776 610.384H114.032L128.682 551.386V610.384H130.292V551.386L144.947 610.384H146.204L160.854 551.386V610.384H162.464V551.386L177.119 610.384H178.376L193.026 551.386V610.384H194.636V551.386L209.286 610.384H210.542L225.198 551.386V610.384H226.808V551.386L241.458 610.384H242.714L257.37 551.386V610.384H258.974V551.386L273.629 610.384H274.886L289.536 551.386V610.384H291.146V551.386L305.801 610.384H307.052L321.708 551.386V610.384H323.318V551.386L337.968 610.384H339.224L353.88 551.386V610.384H355.49V551.386L370.14 610.384H371.396L386.052 551.386V610.384H387.656V551.386L402.311 610.384H403.568L405.983 600.669L406 593.908L402.937 606.236L387.656 544.713L387.482 544H386.225ZM0 610.384V612H405.942L405.948 610.384H0Z" fill="#575756"/>
<path d="M386.225 612L386.052 612.713L370.771 674.236L355.31 612H354.054L338.599 674.236L323.318 612.713L323.138 612H321.887L321.708 612.713L306.427 674.236L290.972 612H289.715L274.255 674.236L258.974 612.713L258.8 612H257.543L257.37 612.713L242.089 674.236L226.628 612H225.372L209.917 674.236L194.636 612.713L194.456 612H193.205L193.026 612.713L177.745 674.236L162.284 612H161.033L145.573 674.236L130.292 612.713L130.118 612H128.861L128.682 612.713L113.407 674.236L97.9461 612H96.6896L81.2347 674.236L65.9536 612.713L65.7741 612H64.5176L64.3439 612.713L49.0628 674.236L33.608 612H32.3515L16.8909 674.236L1.43604 612H0.00579049V678.384H1.60976V619.386L16.2655 678.384H17.522L32.1719 619.386V678.384H33.7817V619.386L48.4374 678.384H49.6882L64.3439 619.386V678.384H65.9536V619.386L80.6036 678.384H81.8601L96.5158 619.386V678.384H98.1256V619.386L112.776 678.384H114.032L128.682 619.386V678.384H130.292V619.386L144.947 678.384H146.204L160.854 619.386V678.384H162.464V619.386L177.119 678.384H178.376L193.026 619.386V678.384H194.636V619.386L209.286 678.384H210.542L225.198 619.386V678.384H226.808V619.386L241.458 678.384H242.714L257.37 619.386V678.384H258.974V619.386L273.629 678.384H274.886L289.536 619.386V678.384H291.146V619.386L305.801 678.384H307.052L321.708 619.386V678.384H323.318V619.386L337.968 678.384H339.224L353.88 619.386V678.384H355.49V619.386L370.14 678.384H371.396L386.052 619.386V678.384H387.656V619.386L402.311 678.384H403.568L405.983 668.669L406 661.908L402.937 674.236L387.656 612.713L387.482 612H386.225ZM0 678.384V680H405.942L405.948 678.384H0Z" fill="#575756"/>
<path d="M386.225 680L386.052 680.713L370.771 742.236L355.31 680H354.054L338.599 742.236L323.318 680.713L323.138 680H321.887L321.708 680.713L306.427 742.236L290.972 680H289.715L274.255 742.236L258.974 680.713L258.8 680H257.543L257.37 680.713L242.089 742.236L226.628 680H225.372L209.917 742.236L194.636 680.713L194.456 680H193.205L193.026 680.713L177.745 742.236L162.284 680H161.033L145.573 742.236L130.292 680.713L130.118 680H128.861L128.682 680.713L113.407 742.236L97.9461 680H96.6896L81.2347 742.236L65.9536 680.713L65.7741 680H64.5176L64.3439 680.713L49.0628 742.236L33.608 680H32.3515L16.8909 742.236L1.43604 680H0.00579049V746.384H1.60976V687.386L16.2655 746.384H17.522L32.1719 687.386V746.384H33.7817V687.386L48.4374 746.384H49.6882L64.3439 687.386V746.384H65.9536V687.386L80.6036 746.384H81.8601L96.5158 687.386V746.384H98.1256V687.386L112.776 746.384H114.032L128.682 687.386V746.384H130.292V687.386L144.947 746.384H146.204L160.854 687.386V746.384H162.464V687.386L177.119 746.384H178.376L193.026 687.386V746.384H194.636V687.386L209.286 746.384H210.542L225.198 687.386V746.384H226.808V687.386L241.458 746.384H242.714L257.37 687.386V746.384H258.974V687.386L273.629 746.384H274.886L289.536 687.386V746.384H291.146V687.386L305.801 746.384H307.052L321.708 687.386V746.384H323.318V687.386L337.968 746.384H339.224L353.88 687.386V746.384H355.49V687.386L370.14 746.384H371.396L386.052 687.386V746.384H387.656V687.386L402.311 746.384H403.568L405.983 736.669L406 729.908L402.937 742.236L387.656 680.713L387.482 680H386.225ZM0 746.384V748H405.942L405.948 746.384H0Z" fill="#575756"/>
<path d="M386.225 748L386.052 748.713L370.771 810.236L355.31 748H354.054L338.599 810.236L323.318 748.713L323.138 748H321.887L321.708 748.713L306.427 810.236L290.972 748H289.715L274.255 810.236L258.974 748.713L258.8 748H257.543L257.37 748.713L242.089 810.236L226.628 748H225.372L209.917 810.236L194.636 748.713L194.456 748H193.205L193.026 748.713L177.745 810.236L162.284 748H161.033L145.573 810.236L130.292 748.713L130.118 748H128.861L128.682 748.713L113.407 810.236L97.9461 748H96.6896L81.2347 810.236L65.9536 748.713L65.7741 748H64.5176L64.3439 748.713L49.0628 810.236L33.608 748H32.3515L16.8909 810.236L1.43604 748H0.00579049V814.384H1.60976V755.386L16.2655 814.384H17.522L32.1719 755.386V814.384H33.7817V755.386L48.4374 814.384H49.6882L64.3439 755.386V814.384H65.9536V755.386L80.6036 814.384H81.8601L96.5158 755.386V814.384H98.1256V755.386L112.776 814.384H114.032L128.682 755.386V814.384H130.292V755.386L144.947 814.384H146.204L160.854 755.386V814.384H162.464V755.386L177.119 814.384H178.376L193.026 755.386V814.384H194.636V755.386L209.286 814.384H210.542L225.198 755.386V814.384H226.808V755.386L241.458 814.384H242.714L257.37 755.386V814.384H258.974V755.386L273.629 814.384H274.886L289.536 755.386V814.384H291.146V755.386L305.801 814.384H307.052L321.708 755.386V814.384H323.318V755.386L337.968 814.384H339.224L353.88 755.386V814.384H355.49V755.386L370.14 814.384H371.396L386.052 755.386V814.384H387.656V755.386L402.311 814.384H403.568L405.983 804.669L406 797.908L402.937 810.236L387.656 748.713L387.482 748H386.225ZM0 814.384V816H405.942L405.948 814.384H0Z" fill="#575756"/>
<path d="M386.225 816L386.052 816.713L370.771 878.236L355.31 816H354.054L338.599 878.236L323.318 816.713L323.138 816H321.887L321.708 816.713L306.427 878.236L290.972 816H289.715L274.255 878.236L258.974 816.713L258.8 816H257.543L257.37 816.713L242.089 878.236L226.628 816H225.372L209.917 878.236L194.636 816.713L194.456 816H193.205L193.026 816.713L177.745 878.236L162.284 816H161.033L145.573 878.236L130.292 816.713L130.118 816H128.861L128.682 816.713L113.407 878.236L97.9461 816H96.6896L81.2347 878.236L65.9536 816.713L65.7741 816H64.5176L64.3439 816.713L49.0628 878.236L33.608 816H32.3515L16.8909 878.236L1.43604 816H0.00579049V882.384H1.60976V823.386L16.2655 882.384H17.522L32.1719 823.386V882.384H33.7817V823.386L48.4374 882.384H49.6882L64.3439 823.386V882.384H65.9536V823.386L80.6036 882.384H81.8601L96.5158 823.386V882.384H98.1256V823.386L112.776 882.384H114.032L128.682 823.386V882.384H130.292V823.386L144.947 882.384H146.204L160.854 823.386V882.384H162.464V823.386L177.119 882.384H178.376L193.026 823.386V882.384H194.636V823.386L209.286 882.384H210.542L225.198 823.386V882.384H226.808V823.386L241.458 882.384H242.714L257.37 823.386V882.384H258.974V823.386L273.629 882.384H274.886L289.536 823.386V882.384H291.146V823.386L305.801 882.384H307.052L321.708 823.386V882.384H323.318V823.386L337.968 882.384H339.224L353.88 823.386V882.384H355.49V823.386L370.14 882.384H371.396L386.052 823.386V882.384H387.656V823.386L402.311 882.384H403.568L405.983 872.669L406 865.908L402.937 878.236L387.656 816.713L387.482 816H386.225ZM0 882.384V884H405.942L405.948 882.384H0Z" fill="#575756"/>
</g>
</g>
<defs>
<clipPath id="clip0_164_8653">
<rect width="393" height="852" fill="white"/>
</clipPath>
</defs>
</svg>
