<svg width="393" height="852" viewBox="0 0 393 852" fill="none" xmlns="http://www.w3.org/2000/svg">
<g clip-path="url(#clip0_164_8671)">

<g opacity="0.35">
<path d="M386.225 -49L386.052 -48.2874L370.771 13.2358L355.31 -49H354.054L338.599 13.2358L323.318 -48.2874L323.138 -49H321.887L321.708 -48.2874L306.427 13.2358L290.972 -49H289.715L274.255 13.2358L258.974 -48.2874L258.8 -49H257.543L257.37 -48.2874L242.089 13.2358L226.628 -49H225.372L209.917 13.2358L194.636 -48.2874L194.456 -49H193.205L193.026 -48.2874L177.745 13.2358L162.284 -49H161.033L145.573 13.2358L130.292 -48.2874L130.118 -49H128.861L128.682 -48.2874L113.407 13.2358L97.9461 -49H96.6896L81.2347 13.2358L65.9536 -48.2874L65.7741 -49H64.5176L64.3439 -48.2874L49.0628 13.2358L33.608 -49H32.3515L16.8909 13.2358L1.43604 -49H0.00579049V17.3837H1.60976V-41.6137L16.2655 17.3837H17.522L32.1719 -41.6137V17.3837H33.7817V-41.6137L48.4374 17.3837H49.6882L64.3439 -41.6137V17.3837H65.9536V-41.6137L80.6036 17.3837H81.8601L96.5158 -41.6137V17.3837H98.1256V-41.6137L112.776 17.3837H114.032L128.682 -41.6137V17.3837H130.292V-41.6137L144.947 17.3837H146.204L160.854 -41.6137V17.3837H162.464V-41.6137L177.119 17.3837H178.376L193.026 -41.6137V17.3837H194.636V-41.6137L209.286 17.3837H210.542L225.198 -41.6137V17.3837H226.808V-41.6137L241.458 17.3837H242.714L257.37 -41.6137V17.3837H258.974V-41.6137L273.629 17.3837H274.886L289.536 -41.6137V17.3837H291.146V-41.6137L305.801 17.3837H307.052L321.708 -41.6137V17.3837H323.318V-41.6137L337.968 17.3837H339.224L353.88 -41.6137V17.3837H355.49V-41.6137L370.14 17.3837H371.396L386.052 -41.6137V17.3837H387.656V-41.6137L402.311 17.3837H403.568L405.983 7.6686L406 0.907992L402.937 13.2358L387.656 -48.2874L387.482 -49H386.225ZM0 17.3837V19H405.942L405.948 17.3837H0Z" fill="#1A1512"/>
<path d="M386.225 19L386.052 19.7126L370.771 81.2358L355.31 19H354.054L338.599 81.2358L323.318 19.7126L323.138 19H321.887L321.708 19.7126L306.427 81.2358L290.972 19H289.715L274.255 81.2358L258.974 19.7126L258.8 19H257.543L257.37 19.7126L242.089 81.2358L226.628 19H225.372L209.917 81.2358L194.636 19.7126L194.456 19H193.205L193.026 19.7126L177.745 81.2358L162.284 19H161.033L145.573 81.2358L130.292 19.7126L130.118 19H128.861L128.682 19.7126L113.407 81.2358L97.9461 19H96.6896L81.2347 81.2358L65.9536 19.7126L65.7741 19H64.5176L64.3439 19.7126L49.0628 81.2358L33.608 19H32.3515L16.8909 81.2358L1.43604 19H0.00579049V85.3837H1.60976V26.3863L16.2655 85.3837H17.522L32.1719 26.3863V85.3837H33.7817V26.3863L48.4374 85.3837H49.6882L64.3439 26.3863V85.3837H65.9536V26.3863L80.6036 85.3837H81.8601L96.5158 26.3863V85.3837H98.1256V26.3863L112.776 85.3837H114.032L128.682 26.3863V85.3837H130.292V26.3863L144.947 85.3837H146.204L160.854 26.3863V85.3837H162.464V26.3863L177.119 85.3837H178.376L193.026 26.3863V85.3837H194.636V26.3863L209.286 85.3837H210.542L225.198 26.3863V85.3837H226.808V26.3863L241.458 85.3837H242.714L257.37 26.3863V85.3837H258.974V26.3863L273.629 85.3837H274.886L289.536 26.3863V85.3837H291.146V26.3863L305.801 85.3837H307.052L321.708 26.3863V85.3837H323.318V26.3863L337.968 85.3837H339.224L353.88 26.3863V85.3837H355.49V26.3863L370.14 85.3837H371.396L386.052 26.3863V85.3837H387.656V26.3863L402.311 85.3837H403.568L405.983 75.6686L406 68.908L402.937 81.2358L387.656 19.7126L387.482 19H386.225ZM0 85.3837V87H405.942L405.948 85.3837H0Z" fill="#1A1512"/>
<path d="M386.225 87L386.052 87.7126L370.771 149.236L355.31 87H354.054L338.599 149.236L323.318 87.7126L323.138 87H321.887L321.708 87.7126L306.427 149.236L290.972 87H289.715L274.255 149.236L258.974 87.7126L258.8 87H257.543L257.37 87.7126L242.089 149.236L226.628 87H225.372L209.917 149.236L194.636 87.7126L194.456 87H193.205L193.026 87.7126L177.745 149.236L162.284 87H161.033L145.573 149.236L130.292 87.7126L130.118 87H128.861L128.682 87.7126L113.407 149.236L97.9461 87H96.6896L81.2347 149.236L65.9536 87.7126L65.7741 87H64.5176L64.3439 87.7126L49.0628 149.236L33.608 87H32.3515L16.8909 149.236L1.43604 87H0.00579049V153.384H1.60976V94.3863L16.2655 153.384H17.522L32.1719 94.3863V153.384H33.7817V94.3863L48.4374 153.384H49.6882L64.3439 94.3863V153.384H65.9536V94.3863L80.6036 153.384H81.8601L96.5158 94.3863V153.384H98.1256V94.3863L112.776 153.384H114.032L128.682 94.3863V153.384H130.292V94.3863L144.947 153.384H146.204L160.854 94.3863V153.384H162.464V94.3863L177.119 153.384H178.376L193.026 94.3863V153.384H194.636V94.3863L209.286 153.384H210.542L225.198 94.3863V153.384H226.808V94.3863L241.458 153.384H242.714L257.37 94.3863V153.384H258.974V94.3863L273.629 153.384H274.886L289.536 94.3863V153.384H291.146V94.3863L305.801 153.384H307.052L321.708 94.3863V153.384H323.318V94.3863L337.968 153.384H339.224L353.88 94.3863V153.384H355.49V94.3863L370.14 153.384H371.396L386.052 94.3863V153.384H387.656V94.3863L402.311 153.384H403.568L405.983 143.669L406 136.908L402.937 149.236L387.656 87.7126L387.482 87H386.225ZM0 153.384V155H405.942L405.948 153.384H0Z" fill="#1A1512"/>
<path d="M386.225 155L386.052 155.713L370.771 217.236L355.31 155H354.054L338.599 217.236L323.318 155.713L323.138 155H321.887L321.708 155.713L306.427 217.236L290.972 155H289.715L274.255 217.236L258.974 155.713L258.8 155H257.543L257.37 155.713L242.089 217.236L226.628 155H225.372L209.917 217.236L194.636 155.713L194.456 155H193.205L193.026 155.713L177.745 217.236L162.284 155H161.033L145.573 217.236L130.292 155.713L130.118 155H128.861L128.682 155.713L113.407 217.236L97.9461 155H96.6896L81.2347 217.236L65.9536 155.713L65.7741 155H64.5176L64.3439 155.713L49.0628 217.236L33.608 155H32.3515L16.8909 217.236L1.43604 155H0.00579049V221.384H1.60976V162.386L16.2655 221.384H17.522L32.1719 162.386V221.384H33.7817V162.386L48.4374 221.384H49.6882L64.3439 162.386V221.384H65.9536V162.386L80.6036 221.384H81.8601L96.5158 162.386V221.384H98.1256V162.386L112.776 221.384H114.032L128.682 162.386V221.384H130.292V162.386L144.947 221.384H146.204L160.854 162.386V221.384H162.464V162.386L177.119 221.384H178.376L193.026 162.386V221.384H194.636V162.386L209.286 221.384H210.542L225.198 162.386V221.384H226.808V162.386L241.458 221.384H242.714L257.37 162.386V221.384H258.974V162.386L273.629 221.384H274.886L289.536 162.386V221.384H291.146V162.386L305.801 221.384H307.052L321.708 162.386V221.384H323.318V162.386L337.968 221.384H339.224L353.88 162.386V221.384H355.49V162.386L370.14 221.384H371.396L386.052 162.386V221.384H387.656V162.386L402.311 221.384H403.568L405.983 211.669L406 204.908L402.937 217.236L387.656 155.713L387.482 155H386.225ZM0 221.384V223H405.942L405.948 221.384H0Z" fill="#1A1512"/>
<path d="M386.225 223L386.052 223.713L370.771 285.236L355.31 223H354.054L338.599 285.236L323.318 223.713L323.138 223H321.887L321.708 223.713L306.427 285.236L290.972 223H289.715L274.255 285.236L258.974 223.713L258.8 223H257.543L257.37 223.713L242.089 285.236L226.628 223H225.372L209.917 285.236L194.636 223.713L194.456 223H193.205L193.026 223.713L177.745 285.236L162.284 223H161.033L145.573 285.236L130.292 223.713L130.118 223H128.861L128.682 223.713L113.407 285.236L97.9461 223H96.6896L81.2347 285.236L65.9536 223.713L65.7741 223H64.5176L64.3439 223.713L49.0628 285.236L33.608 223H32.3515L16.8909 285.236L1.43604 223H0.00579049V289.384H1.60976V230.386L16.2655 289.384H17.522L32.1719 230.386V289.384H33.7817V230.386L48.4374 289.384H49.6882L64.3439 230.386V289.384H65.9536V230.386L80.6036 289.384H81.8601L96.5158 230.386V289.384H98.1256V230.386L112.776 289.384H114.032L128.682 230.386V289.384H130.292V230.386L144.947 289.384H146.204L160.854 230.386V289.384H162.464V230.386L177.119 289.384H178.376L193.026 230.386V289.384H194.636V230.386L209.286 289.384H210.542L225.198 230.386V289.384H226.808V230.386L241.458 289.384H242.714L257.37 230.386V289.384H258.974V230.386L273.629 289.384H274.886L289.536 230.386V289.384H291.146V230.386L305.801 289.384H307.052L321.708 230.386V289.384H323.318V230.386L337.968 289.384H339.224L353.88 230.386V289.384H355.49V230.386L370.14 289.384H371.396L386.052 230.386V289.384H387.656V230.386L402.311 289.384H403.568L405.983 279.669L406 272.908L402.937 285.236L387.656 223.713L387.482 223H386.225ZM0 289.384V291H405.942L405.948 289.384H0Z" fill="#1A1512"/>
<path d="M386.225 291L386.052 291.713L370.771 353.236L355.31 291H354.054L338.599 353.236L323.318 291.713L323.138 291H321.887L321.708 291.713L306.427 353.236L290.972 291H289.715L274.255 353.236L258.974 291.713L258.8 291H257.543L257.37 291.713L242.089 353.236L226.628 291H225.372L209.917 353.236L194.636 291.713L194.456 291H193.205L193.026 291.713L177.745 353.236L162.284 291H161.033L145.573 353.236L130.292 291.713L130.118 291H128.861L128.682 291.713L113.407 353.236L97.9461 291H96.6896L81.2347 353.236L65.9536 291.713L65.7741 291H64.5176L64.3439 291.713L49.0628 353.236L33.608 291H32.3515L16.8909 353.236L1.43604 291H0.00579049V357.384H1.60976V298.386L16.2655 357.384H17.522L32.1719 298.386V357.384H33.7817V298.386L48.4374 357.384H49.6882L64.3439 298.386V357.384H65.9536V298.386L80.6036 357.384H81.8601L96.5158 298.386V357.384H98.1256V298.386L112.776 357.384H114.032L128.682 298.386V357.384H130.292V298.386L144.947 357.384H146.204L160.854 298.386V357.384H162.464V298.386L177.119 357.384H178.376L193.026 298.386V357.384H194.636V298.386L209.286 357.384H210.542L225.198 298.386V357.384H226.808V298.386L241.458 357.384H242.714L257.37 298.386V357.384H258.974V298.386L273.629 357.384H274.886L289.536 298.386V357.384H291.146V298.386L305.801 357.384H307.052L321.708 298.386V357.384H323.318V298.386L337.968 357.384H339.224L353.88 298.386V357.384H355.49V298.386L370.14 357.384H371.396L386.052 298.386V357.384H387.656V298.386L402.311 357.384H403.568L405.983 347.669L406 340.908L402.937 353.236L387.656 291.713L387.482 291H386.225ZM0 357.384V359H405.942L405.948 357.384H0Z" fill="#1A1512"/>
<path d="M386.225 359L386.052 359.713L370.771 421.236L355.31 359H354.054L338.599 421.236L323.318 359.713L323.138 359H321.887L321.708 359.713L306.427 421.236L290.972 359H289.715L274.255 421.236L258.974 359.713L258.8 359H257.543L257.37 359.713L242.089 421.236L226.628 359H225.372L209.917 421.236L194.636 359.713L194.456 359H193.205L193.026 359.713L177.745 421.236L162.284 359H161.033L145.573 421.236L130.292 359.713L130.118 359H128.861L128.682 359.713L113.407 421.236L97.9461 359H96.6896L81.2347 421.236L65.9536 359.713L65.7741 359H64.5176L64.3439 359.713L49.0628 421.236L33.608 359H32.3515L16.8909 421.236L1.43604 359H0.00579049V425.384H1.60976V366.386L16.2655 425.384H17.522L32.1719 366.386V425.384H33.7817V366.386L48.4374 425.384H49.6882L64.3439 366.386V425.384H65.9536V366.386L80.6036 425.384H81.8601L96.5158 366.386V425.384H98.1256V366.386L112.776 425.384H114.032L128.682 366.386V425.384H130.292V366.386L144.947 425.384H146.204L160.854 366.386V425.384H162.464V366.386L177.119 425.384H178.376L193.026 366.386V425.384H194.636V366.386L209.286 425.384H210.542L225.198 366.386V425.384H226.808V366.386L241.458 425.384H242.714L257.37 366.386V425.384H258.974V366.386L273.629 425.384H274.886L289.536 366.386V425.384H291.146V366.386L305.801 425.384H307.052L321.708 366.386V425.384H323.318V366.386L337.968 425.384H339.224L353.88 366.386V425.384H355.49V366.386L370.14 425.384H371.396L386.052 366.386V425.384H387.656V366.386L402.311 425.384H403.568L405.983 415.669L406 408.908L402.937 421.236L387.656 359.713L387.482 359H386.225ZM0 425.384V427H405.942L405.948 425.384H0Z" fill="#1A1512"/>
<path d="M386.225 427L386.052 427.713L370.771 489.236L355.31 427H354.054L338.599 489.236L323.318 427.713L323.138 427H321.887L321.708 427.713L306.427 489.236L290.972 427H289.715L274.255 489.236L258.974 427.713L258.8 427H257.543L257.37 427.713L242.089 489.236L226.628 427H225.372L209.917 489.236L194.636 427.713L194.456 427H193.205L193.026 427.713L177.745 489.236L162.284 427H161.033L145.573 489.236L130.292 427.713L130.118 427H128.861L128.682 427.713L113.407 489.236L97.9461 427H96.6896L81.2347 489.236L65.9536 427.713L65.7741 427H64.5176L64.3439 427.713L49.0628 489.236L33.608 427H32.3515L16.8909 489.236L1.43604 427H0.00579049V493.384H1.60976V434.386L16.2655 493.384H17.522L32.1719 434.386V493.384H33.7817V434.386L48.4374 493.384H49.6882L64.3439 434.386V493.384H65.9536V434.386L80.6036 493.384H81.8601L96.5158 434.386V493.384H98.1256V434.386L112.776 493.384H114.032L128.682 434.386V493.384H130.292V434.386L144.947 493.384H146.204L160.854 434.386V493.384H162.464V434.386L177.119 493.384H178.376L193.026 434.386V493.384H194.636V434.386L209.286 493.384H210.542L225.198 434.386V493.384H226.808V434.386L241.458 493.384H242.714L257.37 434.386V493.384H258.974V434.386L273.629 493.384H274.886L289.536 434.386V493.384H291.146V434.386L305.801 493.384H307.052L321.708 434.386V493.384H323.318V434.386L337.968 493.384H339.224L353.88 434.386V493.384H355.49V434.386L370.14 493.384H371.396L386.052 434.386V493.384H387.656V434.386L402.311 493.384H403.568L405.983 483.669L406 476.908L402.937 489.236L387.656 427.713L387.482 427H386.225ZM0 493.384V495H405.942L405.948 493.384H0Z" fill="#1A1512"/>
<path d="M386.225 495L386.052 495.713L370.771 557.236L355.31 495H354.054L338.599 557.236L323.318 495.713L323.138 495H321.887L321.708 495.713L306.427 557.236L290.972 495H289.715L274.255 557.236L258.974 495.713L258.8 495H257.543L257.37 495.713L242.089 557.236L226.628 495H225.372L209.917 557.236L194.636 495.713L194.456 495H193.205L193.026 495.713L177.745 557.236L162.284 495H161.033L145.573 557.236L130.292 495.713L130.118 495H128.861L128.682 495.713L113.407 557.236L97.9461 495H96.6896L81.2347 557.236L65.9536 495.713L65.7741 495H64.5176L64.3439 495.713L49.0628 557.236L33.608 495H32.3515L16.8909 557.236L1.43604 495H0.00579049V561.384H1.60976V502.386L16.2655 561.384H17.522L32.1719 502.386V561.384H33.7817V502.386L48.4374 561.384H49.6882L64.3439 502.386V561.384H65.9536V502.386L80.6036 561.384H81.8601L96.5158 502.386V561.384H98.1256V502.386L112.776 561.384H114.032L128.682 502.386V561.384H130.292V502.386L144.947 561.384H146.204L160.854 502.386V561.384H162.464V502.386L177.119 561.384H178.376L193.026 502.386V561.384H194.636V502.386L209.286 561.384H210.542L225.198 502.386V561.384H226.808V502.386L241.458 561.384H242.714L257.37 502.386V561.384H258.974V502.386L273.629 561.384H274.886L289.536 502.386V561.384H291.146V502.386L305.801 561.384H307.052L321.708 502.386V561.384H323.318V502.386L337.968 561.384H339.224L353.88 502.386V561.384H355.49V502.386L370.14 561.384H371.396L386.052 502.386V561.384H387.656V502.386L402.311 561.384H403.568L405.983 551.669L406 544.908L402.937 557.236L387.656 495.713L387.482 495H386.225ZM0 561.384V563H405.942L405.948 561.384H0Z" fill="#1A1512"/>
<path d="M386.225 563L386.052 563.713L370.771 625.236L355.31 563H354.054L338.599 625.236L323.318 563.713L323.138 563H321.887L321.708 563.713L306.427 625.236L290.972 563H289.715L274.255 625.236L258.974 563.713L258.8 563H257.543L257.37 563.713L242.089 625.236L226.628 563H225.372L209.917 625.236L194.636 563.713L194.456 563H193.205L193.026 563.713L177.745 625.236L162.284 563H161.033L145.573 625.236L130.292 563.713L130.118 563H128.861L128.682 563.713L113.407 625.236L97.9461 563H96.6896L81.2347 625.236L65.9536 563.713L65.7741 563H64.5176L64.3439 563.713L49.0628 625.236L33.608 563H32.3515L16.8909 625.236L1.43604 563H0.00579049V629.384H1.60976V570.386L16.2655 629.384H17.522L32.1719 570.386V629.384H33.7817V570.386L48.4374 629.384H49.6882L64.3439 570.386V629.384H65.9536V570.386L80.6036 629.384H81.8601L96.5158 570.386V629.384H98.1256V570.386L112.776 629.384H114.032L128.682 570.386V629.384H130.292V570.386L144.947 629.384H146.204L160.854 570.386V629.384H162.464V570.386L177.119 629.384H178.376L193.026 570.386V629.384H194.636V570.386L209.286 629.384H210.542L225.198 570.386V629.384H226.808V570.386L241.458 629.384H242.714L257.37 570.386V629.384H258.974V570.386L273.629 629.384H274.886L289.536 570.386V629.384H291.146V570.386L305.801 629.384H307.052L321.708 570.386V629.384H323.318V570.386L337.968 629.384H339.224L353.88 570.386V629.384H355.49V570.386L370.14 629.384H371.396L386.052 570.386V629.384H387.656V570.386L402.311 629.384H403.568L405.983 619.669L406 612.908L402.937 625.236L387.656 563.713L387.482 563H386.225ZM0 629.384V631H405.942L405.948 629.384H0Z" fill="#1A1512"/>
<path d="M386.225 631L386.052 631.713L370.771 693.236L355.31 631H354.054L338.599 693.236L323.318 631.713L323.138 631H321.887L321.708 631.713L306.427 693.236L290.972 631H289.715L274.255 693.236L258.974 631.713L258.8 631H257.543L257.37 631.713L242.089 693.236L226.628 631H225.372L209.917 693.236L194.636 631.713L194.456 631H193.205L193.026 631.713L177.745 693.236L162.284 631H161.033L145.573 693.236L130.292 631.713L130.118 631H128.861L128.682 631.713L113.407 693.236L97.9461 631H96.6896L81.2347 693.236L65.9536 631.713L65.7741 631H64.5176L64.3439 631.713L49.0628 693.236L33.608 631H32.3515L16.8909 693.236L1.43604 631H0.00579049V697.384H1.60976V638.386L16.2655 697.384H17.522L32.1719 638.386V697.384H33.7817V638.386L48.4374 697.384H49.6882L64.3439 638.386V697.384H65.9536V638.386L80.6036 697.384H81.8601L96.5158 638.386V697.384H98.1256V638.386L112.776 697.384H114.032L128.682 638.386V697.384H130.292V638.386L144.947 697.384H146.204L160.854 638.386V697.384H162.464V638.386L177.119 697.384H178.376L193.026 638.386V697.384H194.636V638.386L209.286 697.384H210.542L225.198 638.386V697.384H226.808V638.386L241.458 697.384H242.714L257.37 638.386V697.384H258.974V638.386L273.629 697.384H274.886L289.536 638.386V697.384H291.146V638.386L305.801 697.384H307.052L321.708 638.386V697.384H323.318V638.386L337.968 697.384H339.224L353.88 638.386V697.384H355.49V638.386L370.14 697.384H371.396L386.052 638.386V697.384H387.656V638.386L402.311 697.384H403.568L405.983 687.669L406 680.908L402.937 693.236L387.656 631.713L387.482 631H386.225ZM0 697.384V699H405.942L405.948 697.384H0Z" fill="#1A1512"/>
<path d="M386.225 699L386.052 699.713L370.771 761.236L355.31 699H354.054L338.599 761.236L323.318 699.713L323.138 699H321.887L321.708 699.713L306.427 761.236L290.972 699H289.715L274.255 761.236L258.974 699.713L258.8 699H257.543L257.37 699.713L242.089 761.236L226.628 699H225.372L209.917 761.236L194.636 699.713L194.456 699H193.205L193.026 699.713L177.745 761.236L162.284 699H161.033L145.573 761.236L130.292 699.713L130.118 699H128.861L128.682 699.713L113.407 761.236L97.9461 699H96.6896L81.2347 761.236L65.9536 699.713L65.7741 699H64.5176L64.3439 699.713L49.0628 761.236L33.608 699H32.3515L16.8909 761.236L1.43604 699H0.00579049V765.384H1.60976V706.386L16.2655 765.384H17.522L32.1719 706.386V765.384H33.7817V706.386L48.4374 765.384H49.6882L64.3439 706.386V765.384H65.9536V706.386L80.6036 765.384H81.8601L96.5158 706.386V765.384H98.1256V706.386L112.776 765.384H114.032L128.682 706.386V765.384H130.292V706.386L144.947 765.384H146.204L160.854 706.386V765.384H162.464V706.386L177.119 765.384H178.376L193.026 706.386V765.384H194.636V706.386L209.286 765.384H210.542L225.198 706.386V765.384H226.808V706.386L241.458 765.384H242.714L257.37 706.386V765.384H258.974V706.386L273.629 765.384H274.886L289.536 706.386V765.384H291.146V706.386L305.801 765.384H307.052L321.708 706.386V765.384H323.318V706.386L337.968 765.384H339.224L353.88 706.386V765.384H355.49V706.386L370.14 765.384H371.396L386.052 706.386V765.384H387.656V706.386L402.311 765.384H403.568L405.983 755.669L406 748.908L402.937 761.236L387.656 699.713L387.482 699H386.225ZM0 765.384V767H405.942L405.948 765.384H0Z" fill="#1A1512"/>
</g>
</g>
<defs>
<clipPath id="clip0_164_8671">
<rect width="393" height="852" fill="white"/>
</clipPath>
</defs>
</svg>
